# xmcd
#
# Track frame offsets:
#	150
#	18158
#	37387
#	51319
#	69765
#	87958
#	100363
#	117543
#	125105
#	143368
#	157912
#	177701
#
# Disc length: 2600 seconds
# Revision: 1
# Processed by: cddbd v1.5.2PL0 Copyright (c) Steve Scherf et al.
# Submitted via: dBpowerAMP V12.0
#
DISCID=a70a260c
DTITLE=Crooked Still - Some Strange Country
DYEAR=2010
DGENRE=Country
TTITLE0=Sometimes in this Country
TTITLE1=The Golden Vanity
TTITLE2=Distress
TTITLE3=Henry Lee
TTITLE4=Half of What We Know
TTITLE5=I'm Troubled
TTITLE6=Locust in the Willow
TTITLE7=Turning Away
TTITLE8=Calvary
TTITLE9=Cold Mountains
TTITLE10=You Were Gone
TTITLE11=You Got the Silver
EXTD=
EXTT0=
EXTT1=
EXTT2=
EXTT3=
EXTT4=
EXTT5=
EXTT6=
EXTT7=
EXTT8=
EXTT9=
EXTT10=
EXTT11=
PLAYORDER=
